<svg width="96" height="27" viewBox="0 0 96 27" fill="none" xmlns="http://www.w3.org/2000/svg">
<mask id="mask0_1142_1477" style="mask-type:luminance" maskUnits="userSpaceOnUse" x="0" y="0" width="96" height="27">
<path d="M95.087 0H0V27H95.087V0Z" fill="white"/>
</mask>
<g mask="url(#mask0_1142_1477)">
<path fill-rule="evenodd" clip-rule="evenodd" d="M87.5192 0.217773H76.067C73.9956 0.217773 72.0789 1.34633 71.0432 3.17493L66.8685 10.5451C65.8328 12.3734 65.8328 14.6266 66.8685 16.455L71.0432 23.8254C72.0789 25.6537 73.9915 26.7823 76.067 26.7823C76.067 26.7823 80.7971 26.7823 81.7771 26.7823C82.7574 26.7823 83.8486 26.1715 84.4954 24.238C85.2058 22.1021 84.3724 22.0495 83.035 22.0495C81.6938 22.0495 77.0311 22.2517 76.067 21.7947C75.0987 21.3335 71.2376 15.3184 71.2376 13.502C71.2376 11.6858 74.9241 5.96595 75.8843 5.35104C76.8448 4.74028 85.4359 4.95061 86.2614 4.95061C87.0867 4.95061 88.1582 4.6756 88.6899 2.6813C89.289 0.428111 88.5471 0.217773 87.5192 0.217773Z" fill="#2B42EB"/>
<path fill-rule="evenodd" clip-rule="evenodd" d="M78.1872 16.9839C77.8745 18.5412 77.9587 19.3791 79.1136 19.3791H85.5501C86.705 19.3791 87.491 18.5329 87.8401 16.9839C88.2771 15.0301 88.0686 14.5887 86.9097 14.5887H80.4732C79.3183 14.5887 78.5923 14.9974 78.1872 16.9839Z" fill="#2B42EB"/>
<path fill-rule="evenodd" clip-rule="evenodd" d="M80.7461 10.0161C80.4321 11.5734 80.5195 12.4113 81.6646 12.4113H91.5411C92.6862 12.4113 93.4654 11.5654 93.8114 10.0161C94.2446 8.06233 94.038 7.62097 92.893 7.62097H83.0165C81.8676 7.62097 81.1437 8.02967 80.7461 10.0161Z" fill="#2B42EB"/>
<path fill-rule="evenodd" clip-rule="evenodd" d="M5.65149 0C8.35486 0 9.72445 1.48195 9.72445 1.48195L9.30211 2.02064C9.30211 2.02064 7.9485 0.689806 5.67132 0.689806C2.86924 0.689806 0.738098 2.96368 0.738098 6.01316C0.738098 9.07897 2.85346 11.5037 5.72249 11.5037C8.16554 11.5037 9.58225 9.90356 9.58225 9.90356L10.0204 10.4096C10.0204 10.4096 8.48918 12.1935 5.72249 12.1935C2.39551 12.1935 0 9.4341 0 6.01316C0 2.59222 2.44305 0 5.65149 0Z" fill="white"/>
<path fill-rule="evenodd" clip-rule="evenodd" d="M18.4268 7.90864H13.5371L12.0575 11.9758H11.2996L15.6111 0.217773H16.3688L20.6803 11.9758H19.9226L18.4268 7.90864ZM15.974 1.05651C15.974 1.05651 15.7269 1.9645 15.5473 2.46922L13.7844 7.24082H18.1795L16.4328 2.46509C16.2532 1.96037 16.0059 1.05238 16.0059 1.05238H15.974V1.05651Z" fill="white"/>
<path fill-rule="evenodd" clip-rule="evenodd" d="M22.8123 0.217773H26.5755C28.5702 0.217773 30.0611 1.51203 30.0611 3.64482C30.0611 5.77738 28.574 7.10408 26.5755 7.10408H23.5142V11.9758H22.8123V0.217773ZM26.5437 6.42864C28.2133 6.42864 29.3236 5.40286 29.3236 3.64068C29.3236 1.87827 28.2093 0.885372 26.5437 0.885372H23.5182V6.42864H26.5437Z" fill="white"/>
<path fill-rule="evenodd" clip-rule="evenodd" d="M32.6195 0.217773H33.4723V11.9758H32.6195V0.217773Z" fill="white"/>
<path fill-rule="evenodd" clip-rule="evenodd" d="M39.6267 0.889505H35.3911V0.217773H44.5587V0.889505H40.3231V11.9758H39.6267V0.889505Z" fill="white"/>
<path fill-rule="evenodd" clip-rule="evenodd" d="M51.473 7.90864H46.583L45.1034 11.9758H44.3455L48.6571 0.217773H49.4148L53.7263 11.9758H52.9686L51.473 7.90864ZM49.0199 1.05651C49.0199 1.05651 48.7726 1.9645 48.5933 2.46922L46.8304 7.24082H51.2257L49.4826 2.46922C49.3033 1.9645 49.0559 1.05651 49.0559 1.05651H49.0199Z" fill="white"/>
<path fill-rule="evenodd" clip-rule="evenodd" d="M55.8623 0.217773H56.5655V11.3041H62.0411V11.9758H55.8583V0.217773H55.8623Z" fill="white"/>
<path fill-rule="evenodd" clip-rule="evenodd" d="M0.213196 14.8064H7.65876V17.3194H3.1206V19.4953H6.74072V22.0082H3.1206V24.2695H7.88838V26.7822H0.213196V14.8064Z" fill="white"/>
<path fill-rule="evenodd" clip-rule="evenodd" d="M11.9189 20.8389L8.31476 14.8064H11.6025L12.8919 17.2706C13.2883 18.0257 13.6207 18.8133 13.6207 18.8133H13.6526C13.6526 18.8133 13.9652 18.0418 14.3816 17.2706L15.687 14.8064H18.9747L15.3546 20.835L18.9547 26.7822H15.7311L14.3775 24.2695C13.9652 23.5143 13.6488 22.7795 13.6488 22.7795H13.6166C13.6166 22.7795 13.3043 23.5182 12.8879 24.2695L11.5343 26.7822H8.33075L11.9189 20.8389Z" fill="white"/>
<path fill-rule="evenodd" clip-rule="evenodd" d="M20.0408 14.8064H24.9392C27.2346 14.8064 28.782 16.5155 28.782 18.9269C28.782 21.3382 27.2305 23.0799 24.9392 23.0799H22.9279V26.7822H20.0408V14.8064ZM24.3474 20.5711C25.355 20.5711 25.8468 19.885 25.8468 18.9311C25.8468 17.9769 25.3511 17.3235 24.3954 17.3235H22.9279V20.5711H24.3474Z" fill="white"/>
<path fill-rule="evenodd" clip-rule="evenodd" d="M35.3911 14.5887C38.9613 14.5887 41.5739 17.2755 41.5739 20.7191C41.5739 24.2482 38.9613 27 35.3911 27C31.8209 27 29.2083 24.2443 29.2083 20.7191C29.2083 17.2755 31.8209 14.5887 35.3911 14.5887ZM35.3911 24.3133C37.1581 24.3133 38.5808 22.7665 38.5808 20.7191C38.5808 18.7531 37.1581 17.2755 35.3911 17.2755C33.62 17.2755 32.2016 18.7531 32.2016 20.7191C32.2016 22.7665 33.6241 24.3133 35.3911 24.3133Z" fill="white"/>
<path fill-rule="evenodd" clip-rule="evenodd" d="M42.8531 14.8064H46.9774C48.1863 14.8064 48.7685 14.8917 49.2825 15.0905C50.6238 15.6099 51.4713 16.8314 51.4713 18.5725C51.4713 19.8467 50.8768 21.2346 49.7002 21.8392V21.8719C49.7002 21.8719 49.8648 22.0909 50.146 22.5902L52.4471 26.7822H49.2143L47.1098 22.7483H45.7526V26.7822H42.8531V14.8064ZM47.0135 20.2323C47.9413 20.2323 48.5236 19.7128 48.5236 18.7591C48.5236 17.8541 48.1901 17.3185 46.7325 17.3185H45.7566V20.2323H47.0135Z" fill="white"/>
<path fill-rule="evenodd" clip-rule="evenodd" d="M56.0158 17.3194H52.4471V14.8064H62.4675V17.3194H58.8987V26.7822H56.0199V17.3194H56.0158Z" fill="white"/>
<path fill-rule="evenodd" clip-rule="evenodd" d="M91.8265 0.34232H91.0362V0.217773H92.7418V0.34232H91.9515V2.39519H91.8225V0.34232H91.8265Z" fill="white"/>
<path fill-rule="evenodd" clip-rule="evenodd" d="M93.133 0.217773H93.2643L93.9129 1.5865C93.9638 1.69428 94.0188 1.83124 94.0188 1.83124H94.0231C94.0231 1.83124 94.0826 1.69015 94.129 1.5865L94.7776 0.217773H94.9089L95.087 2.39519H94.9514L94.8158 0.73622C94.8072 0.632574 94.8072 0.445968 94.8072 0.445968H94.803C94.803 0.445968 94.7394 0.628437 94.6885 0.73622L94.0909 1.97625H93.951L93.3577 0.73622C93.311 0.632574 93.2389 0.441828 93.2389 0.441828H93.2347C93.2347 0.441828 93.2347 0.632574 93.2261 0.73622L93.0905 2.39519H92.955L93.133 0.217773Z" fill="white"/>
</g>
</svg>
