<svg width="96" height="27" viewBox="0 0 96 27" fill="none" xmlns="http://www.w3.org/2000/svg">
<mask id="mask0_1215_1499" style="mask-type:luminance" maskUnits="userSpaceOnUse" x="0" y="0" width="96" height="27">
<path d="M95.087 0H0V27H95.087V0Z" fill="white"/>
</mask>
<g mask="url(#mask0_1215_1499)">
<path fill-rule="evenodd" clip-rule="evenodd" d="M87.5193 0.217773H76.0671C73.9956 0.217773 72.079 1.34633 71.0432 3.17493L66.8686 10.5451C65.8329 12.3734 65.8329 14.6266 66.8686 16.455L71.0432 23.8254C72.079 25.6537 73.9916 26.7823 76.0671 26.7823C76.0671 26.7823 80.7971 26.7823 81.7772 26.7823C82.7575 26.7823 83.8486 26.1715 84.4955 24.238C85.2059 22.1021 84.3725 22.0495 83.0351 22.0495C81.6938 22.0495 77.0312 22.2517 76.0671 21.7947C75.0987 21.3335 71.2377 15.3184 71.2377 13.502C71.2377 11.6858 74.9241 5.96595 75.8844 5.35104C76.8448 4.74028 85.4359 4.95061 86.2614 4.95061C87.0867 4.95061 88.1583 4.6756 88.69 2.6813C89.2891 0.428111 88.5471 0.217773 87.5193 0.217773Z" fill="#2B42EB"/>
<path fill-rule="evenodd" clip-rule="evenodd" d="M78.1876 16.9839C77.8748 18.5412 77.9591 19.3791 79.114 19.3791H85.5505C86.7054 19.3791 87.4914 18.5329 87.8404 16.9839C88.2775 15.0301 88.069 14.5887 86.91 14.5887H80.4735C79.3186 14.5887 78.5927 14.9974 78.1876 16.9839Z" fill="#2B42EB"/>
<path fill-rule="evenodd" clip-rule="evenodd" d="M80.7456 10.0161C80.4316 11.5734 80.519 12.4113 81.6641 12.4113H91.5406C92.6857 12.4113 93.4649 11.5654 93.8109 10.0161C94.2442 8.06233 94.0376 7.62097 92.8925 7.62097H83.016C81.8671 7.62097 81.1433 8.02967 80.7456 10.0161Z" fill="#2B42EB"/>
<path fill-rule="evenodd" clip-rule="evenodd" d="M5.65149 0C8.35486 0 9.72445 1.48195 9.72445 1.48195L9.30211 2.02064C9.30211 2.02064 7.9485 0.689806 5.67132 0.689806C2.86924 0.689806 0.738098 2.96368 0.738098 6.01316C0.738098 9.07897 2.85346 11.5037 5.72249 11.5037C8.16554 11.5037 9.58225 9.90356 9.58225 9.90356L10.0204 10.4096C10.0204 10.4096 8.48918 12.1935 5.72249 12.1935C2.39551 12.1935 0 9.4341 0 6.01316C0 2.59222 2.44305 0 5.65149 0Z" fill="#001123"/>
<path fill-rule="evenodd" clip-rule="evenodd" d="M18.4271 7.90864H13.5373L12.0577 11.9758H11.2998L15.6113 0.217773H16.369L20.6806 11.9758H19.9229L18.4271 7.90864ZM15.9742 1.05651C15.9742 1.05651 15.7271 1.9645 15.5476 2.46922L13.7846 7.24082H18.1797L16.433 2.46509C16.2535 1.96037 16.0062 1.05238 16.0062 1.05238H15.9742V1.05651Z" fill="#001123"/>
<path fill-rule="evenodd" clip-rule="evenodd" d="M22.8125 0.217773H26.5757C28.5704 0.217773 30.0613 1.51203 30.0613 3.64482C30.0613 5.77738 28.5742 7.10408 26.5757 7.10408H23.5144V11.9758H22.8125V0.217773ZM26.5439 6.42864C28.2135 6.42864 29.3238 5.40286 29.3238 3.64068C29.3238 1.87827 28.2094 0.885372 26.5439 0.885372H23.5184V6.42864H26.5439Z" fill="#001123"/>
<path fill-rule="evenodd" clip-rule="evenodd" d="M32.6191 0.217773H33.4719V11.9758H32.6191V0.217773Z" fill="#001123"/>
<path fill-rule="evenodd" clip-rule="evenodd" d="M39.6263 0.889505H35.3906V0.217773H44.5582V0.889505H40.3226V11.9758H39.6263V0.889505Z" fill="#001123"/>
<path fill-rule="evenodd" clip-rule="evenodd" d="M51.4732 7.90864H46.5832L45.1036 11.9758H44.3457L48.6572 0.217773H49.4149L53.7265 11.9758H52.9688L51.4732 7.90864ZM49.0201 1.05651C49.0201 1.05651 48.7728 1.9645 48.5935 2.46922L46.8305 7.24082H51.2259L49.4827 2.46922C49.3034 1.9645 49.0561 1.05651 49.0561 1.05651H49.0201Z" fill="#001123"/>
<path fill-rule="evenodd" clip-rule="evenodd" d="M55.8625 0.217773H56.5656V11.3041H62.0412V11.9758H55.8584V0.217773H55.8625Z" fill="#001123"/>
<path fill-rule="evenodd" clip-rule="evenodd" d="M0.212891 14.8064H7.65846V17.3194H3.12029V19.4953H6.74042V22.0082H3.12029V24.2695H7.88807V26.7822H0.212891V14.8064Z" fill="#001123"/>
<path fill-rule="evenodd" clip-rule="evenodd" d="M11.9186 20.8389L8.31445 14.8064H11.6022L12.8916 17.2706C13.288 18.0257 13.6203 18.8133 13.6203 18.8133H13.6523C13.6523 18.8133 13.9649 18.0418 14.3813 17.2706L15.6867 14.8064H18.9744L15.3543 20.835L18.9544 26.7822H15.7308L14.3772 24.2695C13.9649 23.5143 13.6485 22.7795 13.6485 22.7795H13.6163C13.6163 22.7795 13.304 23.5182 12.8876 24.2695L11.534 26.7822H8.33045L11.9186 20.8389Z" fill="#001123"/>
<path fill-rule="evenodd" clip-rule="evenodd" d="M20.041 14.8064H24.9395C27.2348 14.8064 28.7822 16.5155 28.7822 18.9269C28.7822 21.3382 27.2307 23.0799 24.9395 23.0799H22.9282V26.7822H20.041V14.8064ZM24.3476 20.5711C25.3552 20.5711 25.8471 19.885 25.8471 18.9311C25.8471 17.9769 25.3514 17.3235 24.3956 17.3235H22.9282V20.5711H24.3476Z" fill="#001123"/>
<path fill-rule="evenodd" clip-rule="evenodd" d="M35.3908 14.5887C38.961 14.5887 41.5736 17.2755 41.5736 20.7191C41.5736 24.2482 38.961 27 35.3908 27C31.8206 27 29.208 24.2443 29.208 20.7191C29.208 17.2755 31.8206 14.5887 35.3908 14.5887ZM35.3908 24.3133C37.1578 24.3133 38.5805 22.7665 38.5805 20.7191C38.5805 18.7531 37.1578 17.2755 35.3908 17.2755C33.6197 17.2755 32.2013 18.7531 32.2013 20.7191C32.2013 22.7665 33.6238 24.3133 35.3908 24.3133Z" fill="#001123"/>
<path fill-rule="evenodd" clip-rule="evenodd" d="M42.8535 14.8064H46.9779C48.1867 14.8064 48.769 14.8917 49.283 15.0905C50.6242 15.6099 51.4717 16.8314 51.4717 18.5725C51.4717 19.8467 50.8773 21.2346 49.7006 21.8392V21.8719C49.7006 21.8719 49.8652 22.0909 50.1464 22.5902L52.4475 26.7822H49.2147L47.1103 22.7483H45.753V26.7822H42.8535V14.8064ZM47.0139 20.2323C47.9417 20.2323 48.524 19.7128 48.524 18.7591C48.524 17.8541 48.1905 17.3185 46.7329 17.3185H45.7571V20.2323H47.0139Z" fill="#001123"/>
<path fill-rule="evenodd" clip-rule="evenodd" d="M56.016 17.3194H52.4473V14.8064H62.4676V17.3194H58.8989V26.7822H56.0201V17.3194H56.016Z" fill="#001123"/>
<path fill-rule="evenodd" clip-rule="evenodd" d="M91.8265 0.34232H91.0361V0.217773H92.7417V0.34232H91.9514V2.39519H91.8224V0.34232H91.8265Z" fill="#001123"/>
<path fill-rule="evenodd" clip-rule="evenodd" d="M93.1331 0.217773H93.2644L93.913 1.5865C93.9639 1.69428 94.0189 1.83124 94.0189 1.83124H94.0232C94.0232 1.83124 94.0827 1.69015 94.1292 1.5865L94.7777 0.217773H94.909L95.0871 2.39519H94.9515L94.8159 0.73622C94.8074 0.632574 94.8074 0.445968 94.8074 0.445968H94.8031C94.8031 0.445968 94.7396 0.628437 94.6886 0.73622L94.091 1.97625H93.9511L93.3578 0.73622C93.3111 0.632574 93.2391 0.441828 93.2391 0.441828H93.2348C93.2348 0.441828 93.2348 0.632574 93.2263 0.73622L93.0907 2.39519H92.9551L93.1331 0.217773Z" fill="#001123"/>
</g>
</svg>
